<svg width="18" height="16" viewBox="0 0 18 16" fill="none" xmlns="http://www.w3.org/2000/svg">
<path d="M16.466 0.141238C16.466 0.141238 18.131 -0.551261 17.9917 1.13052C17.9459 1.82314 17.5297 4.24731 17.2057 6.86898L16.0957 14.6358C16.0957 14.6358 16.0031 15.7736 15.1704 15.9716C14.3381 16.1691 13.0892 15.279 12.8579 15.0811C12.6727 14.9325 9.38893 12.7062 8.23262 11.6183C7.90862 11.3211 7.5383 10.7278 8.27894 10.0352L13.1356 5.08802C13.6906 4.49374 14.2456 3.10862 11.9329 4.79088L5.45726 9.49029C5.45726 9.49029 4.7171 9.9854 3.32978 9.54016L0.322832 8.5504C0.322832 8.5504 -0.787167 7.8085 1.10931 7.06647C5.73494 4.74148 11.4247 2.36755 16.466 0.141238Z" fill="#54A9FF"/>
</svg>
