<svg width="14" height="17" viewBox="0 0 14 17" fill="none" xmlns="http://www.w3.org/2000/svg">
<path d="M12.2568 3.63565C12.1473 3.57642 12.0419 3.51134 11.9385 3.44093C11.6396 3.23281 11.3659 2.98762 11.1217 2.7107C10.5126 1.97724 10.2855 1.23311 10.2014 0.712201H10.2055C10.1355 0.279743 10.1639 0 10.168 0H7.39403V11.2896C7.39403 11.4412 7.39403 11.591 7.38795 11.7389C7.38795 11.7574 7.38693 11.7744 7.38592 11.7942C7.38592 11.8024 7.38592 11.8109 7.38389 11.8193C7.38389 11.8215 7.38389 11.8237 7.38389 11.8257C7.3545 12.2308 7.23086 12.6221 7.0241 12.9652C6.81735 13.3083 6.53458 13.5928 6.1981 13.7933C5.84844 14.0029 5.45318 14.1127 5.05082 14.1122C3.7582 14.1122 2.71065 13.003 2.71065 11.6331C2.71065 10.2633 3.7582 9.15406 5.05082 9.15406C5.29507 9.15375 5.53832 9.19435 5.77142 9.27413L5.77446 6.30142C5.06805 6.20532 4.35049 6.26445 3.66739 6.47489C2.98399 6.68523 2.34945 7.04243 1.80368 7.52395C1.32551 7.96114 0.923559 8.48285 0.615861 9.06551C0.498701 9.27796 0.0569157 10.1319 0.00340304 11.5176C-0.0302451 12.3042 0.194144 13.1191 0.301169 13.4559V13.463C0.368465 13.6613 0.629233 14.3381 1.05429 14.9086C1.39706 15.3662 1.80195 15.7683 2.256 16.1017V16.0946L2.26269 16.1017C3.60577 17.0622 5.0944 16.9992 5.0944 16.9992C5.35285 16.9882 6.21634 16.9992 7.19639 16.5101C8.28388 15.9679 8.90312 15.16 8.90312 15.16C9.2994 14.6774 9.61358 14.1273 9.83351 13.5334C10.0849 12.839 10.168 12.006 10.168 11.6732V5.68371C10.2024 5.70497 10.6504 6.01694 10.6504 6.01694C10.6504 6.01694 11.296 6.45263 12.3034 6.7362C13.026 6.93817 14 6.98068 14 6.98068V4.08231C13.6595 4.1212 12.9662 4.00787 12.2568 3.63565Z" fill="black"/>
</svg>
