<svg width="29" height="16" viewBox="0 0 29 16" fill="none" xmlns="http://www.w3.org/2000/svg">
<path d="M0.8256 13V6.0082H3.4056L5.8437 10.5748H4.8246L7.4949 6.0082H9.804L9.8169 13H7.611V8.4334L7.9851 8.6914L5.8179 12.3808H4.773L2.6058 8.5108L3.0315 8.3947V13H0.8256ZM11.1906 13V6.0082H13.6287V9.6718L16.557 6.0082H18.8145V13H16.3635V9.3235L13.461 13H11.1906ZM24.5814 13.1161C23.988 13.1161 23.4806 12.9871 23.0592 12.7291C22.6378 12.4625 22.3153 12.0669 22.0917 11.5423C21.8767 11.0091 21.7692 10.3297 21.7692 9.5041C21.7692 8.6699 21.8724 7.9905 22.0788 7.4659C22.2852 6.9327 22.5948 6.5371 23.0076 6.2791C23.429 6.0211 23.9536 5.8921 24.5814 5.8921C25.2178 5.8921 25.794 6.0426 26.31 6.3436C26.8346 6.636 27.2474 7.0531 27.5484 7.5949C27.858 8.1281 28.0128 8.7645 28.0128 9.5041C28.0128 10.2437 27.858 10.8844 27.5484 11.4262C27.2474 11.968 26.8346 12.3851 26.31 12.6775C25.794 12.9699 25.2178 13.1161 24.5814 13.1161ZM20.1825 15.5026V6.0082H22.5174V7.195L22.5045 9.5041L22.6335 11.8261V15.5026H20.1825ZM24.0654 11.1682C24.3406 11.1682 24.5857 11.1037 24.8007 10.9747C25.0243 10.8457 25.2006 10.6565 25.3296 10.4071C25.4672 10.1577 25.536 9.8567 25.536 9.5041C25.536 9.1515 25.4672 8.8505 25.3296 8.6011C25.2006 8.3517 25.0243 8.1625 24.8007 8.0335C24.5857 7.9045 24.3406 7.84 24.0654 7.84C23.7902 7.84 23.5408 7.9045 23.3172 8.0335C23.1022 8.1625 22.9259 8.3517 22.7883 8.6011C22.6593 8.8505 22.5948 9.1515 22.5948 9.5041C22.5948 9.8567 22.6593 10.1577 22.7883 10.4071C22.9259 10.6565 23.1022 10.8457 23.3172 10.9747C23.5408 11.1037 23.7902 11.1682 24.0654 11.1682Z" fill="#0F9D58"/>
</svg>
