<svg width="22" height="22" viewBox="0 0 22 22" fill="none" xmlns="http://www.w3.org/2000/svg">
<path d="M13.0195 6.76758C13.0768 6.73893 13.1413 6.71029 13.2129 6.68164C13.2845 6.65299 13.3633 6.63867 13.4492 6.63867C13.5638 6.63867 13.6712 6.66016 13.7715 6.70312C13.8717 6.74609 13.9505 6.81055 14.0078 6.89648L16.3281 9.77539C16.3854 9.83268 16.4284 9.9043 16.457 9.99023C16.4857 10.0762 16.5 10.1621 16.5 10.248C16.5 10.334 16.4857 10.4128 16.457 10.4844C16.4284 10.556 16.3854 10.6204 16.3281 10.6777L14.0078 13.5137C13.9505 13.5996 13.8717 13.6712 13.7715 13.7285C13.6712 13.7858 13.5638 13.8145 13.4492 13.8145C13.2487 13.8145 13.084 13.7428 12.9551 13.5996C12.8262 13.4564 12.7617 13.2845 12.7617 13.084C12.7617 12.998 12.776 12.9193 12.8047 12.8477C12.8333 12.776 12.862 12.6973 12.8906 12.6113L14.2656 10.9355H6.23047C6.02995 10.9355 5.85807 10.8639 5.71484 10.7207C5.57161 10.5775 5.5 10.4199 5.5 10.248C5.5 10.0475 5.57161 9.87565 5.71484 9.73242C5.85807 9.58919 6.02995 9.51758 6.23047 9.51758H14.2656L12.8906 7.79883C12.862 7.74154 12.8333 7.66992 12.8047 7.58398C12.776 7.49805 12.7617 7.41211 12.7617 7.32617C12.7617 7.21159 12.7832 7.11133 12.8262 7.02539C12.8691 6.93945 12.9336 6.85352 13.0195 6.76758Z" fill="black"/>
</svg>
