<svg width="22" height="22" viewBox="0 0 22 22" fill="none" xmlns="http://www.w3.org/2000/svg">
<path d="M8.98047 13.6426C8.92318 13.6999 8.85872 13.7428 8.78711 13.7715C8.71549 13.8001 8.63672 13.8145 8.55078 13.8145C8.4362 13.8145 8.32878 13.7858 8.22852 13.7285C8.12826 13.6712 8.04948 13.5996 7.99219 13.5137L5.67188 10.6348C5.61458 10.5775 5.57161 10.513 5.54297 10.4414C5.51432 10.3698 5.5 10.291 5.5 10.2051C5.5 10.1191 5.51432 10.0332 5.54297 9.94727C5.57161 9.86133 5.61458 9.78971 5.67188 9.73242L7.99219 6.89648C8.04948 6.81055 8.12826 6.74609 8.22852 6.70312C8.32878 6.66016 8.4362 6.63867 8.55078 6.63867C8.7513 6.63867 8.91602 6.70312 9.04492 6.83203C9.17383 6.96094 9.23828 7.12565 9.23828 7.32617C9.23828 7.41211 9.22396 7.49805 9.19531 7.58398C9.16667 7.66992 9.13802 7.74154 9.10938 7.79883L7.73438 9.47461H15.7695C15.9701 9.47461 16.1419 9.54622 16.2852 9.68945C16.4284 9.83268 16.5 10.0046 16.5 10.2051C16.5 10.4056 16.4284 10.5703 16.2852 10.6992C16.1419 10.8281 15.9701 10.8926 15.7695 10.8926H7.73438L9.10938 12.6113C9.13802 12.6973 9.16667 12.776 9.19531 12.8477C9.22396 12.9193 9.23828 12.998 9.23828 13.084C9.23828 13.1986 9.2168 13.306 9.17383 13.4062C9.13086 13.5065 9.06641 13.5853 8.98047 13.6426Z" fill="black"/>
</svg>
